G04 EAGLE Gerber RS-274X export*
G75*
%MOMM*%
%FSLAX34Y34*%
%LPD*%
%INSolderpaste Top*%
%IPPOS*%
%AMOC8*
5,1,8,0,0,1.08239X$1,22.5*%
G01*
G04 Define Apertures*
%ADD10R,1.500000X1.300000*%
%ADD11R,1.300000X1.500000*%
D10*
X898303Y394678D03*
X898303Y413678D03*
D11*
X511737Y284714D03*
X492737Y284714D03*
X612293Y284773D03*
X593293Y284773D03*
X714822Y285025D03*
X695822Y285025D03*
X816744Y285494D03*
X797744Y285494D03*
X517264Y429609D03*
X536264Y429609D03*
X617436Y428943D03*
X636436Y428943D03*
X719321Y428386D03*
X738321Y428386D03*
X952493Y486601D03*
X971493Y486601D03*
X562717Y284607D03*
X543717Y284607D03*
X663954Y284986D03*
X644954Y284986D03*
X766705Y285389D03*
X747705Y285389D03*
X728843Y584704D03*
X747843Y584704D03*
X311125Y442239D03*
X292125Y442239D03*
X867523Y285745D03*
X848523Y285745D03*
D10*
X797433Y557505D03*
X797433Y538505D03*
D11*
X312046Y541022D03*
X293046Y541022D03*
X704081Y561658D03*
X723081Y561658D03*
X311916Y392589D03*
X292916Y392589D03*
X679316Y538925D03*
X698316Y538925D03*
X310681Y340424D03*
X291681Y340424D03*
D10*
X774097Y556997D03*
X774097Y537997D03*
D11*
X313379Y494349D03*
X294379Y494349D03*
X569842Y428466D03*
X588842Y428466D03*
X666394Y428466D03*
X685394Y428466D03*
X772630Y435261D03*
X791630Y435261D03*
M02*
