G04 EAGLE Gerber RS-274X export*
G75*
%MOMM*%
%FSLAX34Y34*%
%LPD*%
%INSoldermask Bottom*%
%IPPOS*%
%AMOC8*
5,1,8,0,0,1.08239X$1,22.5*%
G01*
G04 Define Apertures*
%ADD10C,1.981200*%
%ADD11R,1.511200X1.511200*%
%ADD12C,1.511200*%
%ADD13C,2.184400*%
%ADD14C,1.879600*%
%ADD15C,1.727200*%
%ADD16C,1.546600*%
%ADD17C,1.727200*%
%ADD18C,1.524000*%
%ADD19C,1.625600*%
%ADD20P,1.95198X8X202.5*%
%ADD21C,1.803400*%
%ADD22P,1.95198X8X22.5*%
%ADD23P,1.95198X8X292.5*%
%ADD24C,0.959600*%
D10*
X976983Y670055D03*
D11*
X951583Y670055D03*
D12*
X926183Y670055D03*
X900783Y670055D03*
X875383Y670055D03*
X849983Y670055D03*
X824583Y670055D03*
X799183Y670055D03*
X773783Y670055D03*
X748383Y670055D03*
X722983Y670055D03*
X697583Y670055D03*
X672183Y670055D03*
X646783Y670055D03*
X621383Y670055D03*
X595983Y670055D03*
X595983Y517655D03*
X621383Y517655D03*
X646783Y517655D03*
X672183Y517655D03*
X697583Y517655D03*
X722983Y517655D03*
X748383Y517655D03*
X773783Y517655D03*
X799183Y517655D03*
X824583Y517655D03*
X849983Y517655D03*
X875383Y517655D03*
X900783Y517655D03*
X926183Y517655D03*
X951583Y517655D03*
D10*
X976983Y517655D03*
X570583Y517655D03*
X570583Y670055D03*
D13*
X955326Y153797D02*
X975138Y153797D01*
X975138Y204089D02*
X955326Y204089D01*
X266837Y651907D02*
X266837Y671719D01*
X216545Y671719D02*
X216545Y651907D01*
D14*
X308547Y670925D03*
X410147Y670925D03*
D15*
X950341Y377635D02*
X965581Y377635D01*
X965581Y352235D02*
X950341Y352235D01*
X950341Y326835D02*
X965581Y326835D01*
D16*
X95527Y601512D03*
X95527Y576112D03*
X95527Y550712D03*
X95527Y525312D03*
X95527Y499912D03*
X95527Y474512D03*
X95527Y449112D03*
X171727Y449112D03*
X171727Y474512D03*
X171727Y499912D03*
X171727Y525312D03*
X171727Y550712D03*
X171727Y576112D03*
X171727Y601512D03*
D15*
X450215Y646541D02*
X450215Y661781D01*
X475615Y661781D02*
X475615Y646541D01*
X501015Y646541D02*
X501015Y661781D01*
D17*
X253464Y205683D03*
X228064Y205683D03*
X202664Y205683D03*
X177264Y205683D03*
X151864Y205683D03*
X126464Y205683D03*
X101064Y205683D03*
X75664Y205683D03*
X75664Y78683D03*
X101064Y78683D03*
X126464Y78683D03*
X151864Y78683D03*
X177264Y78683D03*
X202664Y78683D03*
X228064Y78683D03*
X253464Y78683D03*
X470630Y205804D03*
X445230Y205804D03*
X419830Y205804D03*
X394430Y205804D03*
X369030Y205804D03*
X343630Y205804D03*
X318230Y205804D03*
X292830Y205804D03*
X292830Y78804D03*
X318230Y78804D03*
X343630Y78804D03*
X369030Y78804D03*
X394430Y78804D03*
X419830Y78804D03*
X445230Y78804D03*
X470630Y78804D03*
X686530Y205804D03*
X661130Y205804D03*
X635730Y205804D03*
X610330Y205804D03*
X584930Y205804D03*
X559530Y205804D03*
X534130Y205804D03*
X508730Y205804D03*
X508730Y78804D03*
X534130Y78804D03*
X559530Y78804D03*
X584930Y78804D03*
X610330Y78804D03*
X635730Y78804D03*
X661130Y78804D03*
X686530Y78804D03*
X904460Y205804D03*
X879060Y205804D03*
X853660Y205804D03*
X828260Y205804D03*
X802860Y205804D03*
X777460Y205804D03*
X752060Y205804D03*
X726660Y205804D03*
X726660Y78804D03*
X752060Y78804D03*
X777460Y78804D03*
X802860Y78804D03*
X828260Y78804D03*
X853660Y78804D03*
X879060Y78804D03*
X904460Y78804D03*
D18*
X562158Y393891D02*
X562158Y407099D01*
X536758Y407099D02*
X536758Y393891D01*
X536758Y317691D02*
X536758Y304483D01*
X562158Y304483D02*
X562158Y317691D01*
X435387Y442389D02*
X422179Y442389D01*
X422179Y467789D02*
X435387Y467789D01*
X345979Y467789D02*
X332771Y467789D01*
X332771Y442389D02*
X345979Y442389D01*
X423179Y543766D02*
X436387Y543766D01*
X436387Y569166D02*
X423179Y569166D01*
X346979Y569166D02*
X333771Y569166D01*
X333771Y543766D02*
X346979Y543766D01*
X421520Y390876D02*
X434728Y390876D01*
X434728Y416276D02*
X421520Y416276D01*
X345320Y416276D02*
X332112Y416276D01*
X332112Y390876D02*
X345320Y390876D01*
X664057Y393907D02*
X664057Y407115D01*
X638657Y407115D02*
X638657Y393907D01*
X638657Y317707D02*
X638657Y304499D01*
X664057Y304499D02*
X664057Y317707D01*
X434164Y338884D02*
X420956Y338884D01*
X420956Y364284D02*
X434164Y364284D01*
X344756Y364284D02*
X331548Y364284D01*
X331548Y338884D02*
X344756Y338884D01*
X422607Y493386D02*
X435815Y493386D01*
X435815Y518786D02*
X422607Y518786D01*
X346407Y518786D02*
X333199Y518786D01*
X333199Y493386D02*
X346407Y493386D01*
X766301Y407043D02*
X766301Y393835D01*
X740901Y393835D02*
X740901Y407043D01*
X740901Y317635D02*
X740901Y304427D01*
X766301Y304427D02*
X766301Y317635D01*
X868278Y393842D02*
X868278Y407050D01*
X842878Y407050D02*
X842878Y393842D01*
X842878Y317642D02*
X842878Y304434D01*
X868278Y304434D02*
X868278Y317642D01*
X511524Y393827D02*
X511524Y407035D01*
X486124Y407035D02*
X486124Y393827D01*
X486124Y317627D02*
X486124Y304419D01*
X511524Y304419D02*
X511524Y317627D01*
X613061Y393954D02*
X613061Y407162D01*
X587661Y407162D02*
X587661Y393954D01*
X587661Y317754D02*
X587661Y304546D01*
X613061Y304546D02*
X613061Y317754D01*
X715319Y393827D02*
X715319Y407035D01*
X689919Y407035D02*
X689919Y393827D01*
X689919Y317627D02*
X689919Y304419D01*
X715319Y304419D02*
X715319Y317627D01*
X817340Y393954D02*
X817340Y407162D01*
X791940Y407162D02*
X791940Y393954D01*
X791940Y317754D02*
X791940Y304546D01*
X817340Y304546D02*
X817340Y317754D01*
D19*
X126778Y46292D02*
X126778Y32068D01*
X152178Y32068D02*
X152178Y46292D01*
X177578Y46292D02*
X177578Y32068D01*
X202978Y32068D02*
X202978Y46292D01*
X38925Y526883D02*
X24701Y526883D01*
X24701Y501483D02*
X38925Y501483D01*
X38925Y476083D02*
X24701Y476083D01*
X24701Y450683D02*
X38925Y450683D01*
X40203Y428159D02*
X25979Y428159D01*
X25979Y402759D02*
X40203Y402759D01*
X40203Y377359D02*
X25979Y377359D01*
X25979Y351959D02*
X40203Y351959D01*
X343567Y46704D02*
X343567Y32480D01*
X368967Y32480D02*
X368967Y46704D01*
X394367Y46704D02*
X394367Y32480D01*
X419767Y32480D02*
X419767Y46704D01*
X559245Y46196D02*
X559245Y31972D01*
X584645Y31972D02*
X584645Y46196D01*
X610045Y46196D02*
X610045Y31972D01*
X635445Y31972D02*
X635445Y46196D01*
X778002Y44481D02*
X778002Y30257D01*
X803402Y30257D02*
X803402Y44481D01*
X828802Y44481D02*
X828802Y30257D01*
X854202Y30257D02*
X854202Y44481D01*
X559587Y462976D02*
X545363Y462976D01*
X545363Y488376D02*
X559587Y488376D01*
X38925Y625593D02*
X24701Y625593D01*
X24701Y600193D02*
X38925Y600193D01*
X38925Y574793D02*
X24701Y574793D01*
X24701Y549393D02*
X38925Y549393D01*
D20*
X952127Y441071D03*
D21*
X977527Y441071D03*
D20*
X905542Y43752D03*
D21*
X930942Y43752D03*
D22*
X284861Y34036D03*
D21*
X259461Y34036D03*
D22*
X502952Y36640D03*
D21*
X477552Y36640D03*
D22*
X717074Y36132D03*
D21*
X691674Y36132D03*
D20*
X178118Y325850D03*
D21*
X203518Y325850D03*
D20*
X357759Y616998D03*
D21*
X383159Y616998D03*
D23*
X959199Y252159D03*
D21*
X959199Y277559D03*
D13*
X54356Y310293D02*
X34544Y310293D01*
X34544Y260001D02*
X54356Y260001D01*
D24*
X76930Y448945D03*
X79978Y385223D03*
X992824Y463171D03*
X951071Y641128D03*
X875776Y648446D03*
X964025Y561118D03*
X100933Y117793D03*
X317976Y117158D03*
X534194Y117031D03*
X752062Y117158D03*
X109188Y117793D03*
X327438Y117158D03*
X542576Y117031D03*
X760063Y117348D03*
X54450Y117920D03*
X618998Y260509D03*
X529685Y270447D03*
X576675Y268155D03*
X728758Y265240D03*
X787305Y264097D03*
X841343Y264478D03*
X678529Y267526D03*
X833025Y264160D03*
X779558Y263716D03*
X720757Y264795D03*
X669989Y267748D03*
X611219Y260033D03*
X576802Y261176D03*
X522827Y270193D03*
X471456Y283909D03*
X459962Y284226D03*
X930243Y263779D03*
X921322Y263398D03*
X930688Y235839D03*
X309467Y362490D03*
X191294Y473424D03*
X266510Y469519D03*
X310198Y468186D03*
X190278Y487966D03*
X311690Y414401D03*
X259398Y544608D03*
X311785Y517906D03*
X212058Y548735D03*
X312230Y585946D03*
M02*
