G04 EAGLE Gerber RS-274X export*
G75*
%MOMM*%
%FSLAX34Y34*%
%LPD*%
%INTop Copper*%
%IPPOS*%
%AMOC8*
5,1,8,0,0,1.08239X$1,22.5*%
G01*
G04 Define Apertures*
%ADD10R,1.308000X1.308000*%
%ADD11C,1.308000*%
%ADD12C,1.981200*%
%ADD13C,1.676400*%
%ADD14C,1.524000*%
%ADD15C,1.343400*%
%ADD16C,1.524000*%
%ADD17C,1.320800*%
%ADD18R,1.500000X1.300000*%
%ADD19R,1.300000X1.500000*%
%ADD20C,1.422400*%
%ADD21P,1.73204X8X202.5*%
%ADD22C,1.600200*%
%ADD23P,1.73204X8X22.5*%
%ADD24P,1.73204X8X292.5*%
%ADD25C,0.609600*%
%ADD26C,0.756400*%
D10*
X951583Y670055D03*
D11*
X926183Y670055D03*
X900783Y670055D03*
X875383Y670055D03*
X849983Y670055D03*
X824583Y670055D03*
X799183Y670055D03*
X773783Y670055D03*
X748383Y670055D03*
X722983Y670055D03*
X697583Y670055D03*
X672183Y670055D03*
X646783Y670055D03*
X621383Y670055D03*
X595983Y670055D03*
X595983Y517655D03*
X621383Y517655D03*
X646783Y517655D03*
X672183Y517655D03*
X697583Y517655D03*
X722983Y517655D03*
X748383Y517655D03*
X773783Y517655D03*
X799183Y517655D03*
X824583Y517655D03*
X849983Y517655D03*
X875383Y517655D03*
X900783Y517655D03*
X926183Y517655D03*
X951583Y517655D03*
D12*
X955326Y153797D02*
X975138Y153797D01*
X975138Y204089D02*
X955326Y204089D01*
X266837Y651907D02*
X266837Y671719D01*
X216545Y671719D02*
X216545Y651907D01*
D13*
X308547Y670925D03*
X410147Y670925D03*
D14*
X950341Y377635D02*
X965581Y377635D01*
X965581Y352235D02*
X950341Y352235D01*
X950341Y326835D02*
X965581Y326835D01*
D15*
X95527Y601512D03*
X95527Y576112D03*
X95527Y550712D03*
X95527Y525312D03*
X95527Y499912D03*
X95527Y474512D03*
X95527Y449112D03*
X171727Y449112D03*
X171727Y474512D03*
X171727Y499912D03*
X171727Y525312D03*
X171727Y550712D03*
X171727Y576112D03*
X171727Y601512D03*
D14*
X450215Y646541D02*
X450215Y661781D01*
X475615Y661781D02*
X475615Y646541D01*
X501015Y646541D02*
X501015Y661781D01*
D16*
X253464Y205683D03*
X228064Y205683D03*
X202664Y205683D03*
X177264Y205683D03*
X151864Y205683D03*
X126464Y205683D03*
X101064Y205683D03*
X75664Y205683D03*
X75664Y78683D03*
X101064Y78683D03*
X126464Y78683D03*
X151864Y78683D03*
X177264Y78683D03*
X202664Y78683D03*
X228064Y78683D03*
X253464Y78683D03*
X470630Y205804D03*
X445230Y205804D03*
X419830Y205804D03*
X394430Y205804D03*
X369030Y205804D03*
X343630Y205804D03*
X318230Y205804D03*
X292830Y205804D03*
X292830Y78804D03*
X318230Y78804D03*
X343630Y78804D03*
X369030Y78804D03*
X394430Y78804D03*
X419830Y78804D03*
X445230Y78804D03*
X470630Y78804D03*
X686530Y205804D03*
X661130Y205804D03*
X635730Y205804D03*
X610330Y205804D03*
X584930Y205804D03*
X559530Y205804D03*
X534130Y205804D03*
X508730Y205804D03*
X508730Y78804D03*
X534130Y78804D03*
X559530Y78804D03*
X584930Y78804D03*
X610330Y78804D03*
X635730Y78804D03*
X661130Y78804D03*
X686530Y78804D03*
X904460Y205804D03*
X879060Y205804D03*
X853660Y205804D03*
X828260Y205804D03*
X802860Y205804D03*
X777460Y205804D03*
X752060Y205804D03*
X726660Y205804D03*
X726660Y78804D03*
X752060Y78804D03*
X777460Y78804D03*
X802860Y78804D03*
X828260Y78804D03*
X853660Y78804D03*
X879060Y78804D03*
X904460Y78804D03*
D17*
X562158Y393891D02*
X562158Y407099D01*
X536758Y407099D02*
X536758Y393891D01*
X536758Y317691D02*
X536758Y304483D01*
X562158Y304483D02*
X562158Y317691D01*
X435387Y442389D02*
X422179Y442389D01*
X422179Y467789D02*
X435387Y467789D01*
X345979Y467789D02*
X332771Y467789D01*
X332771Y442389D02*
X345979Y442389D01*
X423179Y543766D02*
X436387Y543766D01*
X436387Y569166D02*
X423179Y569166D01*
X346979Y569166D02*
X333771Y569166D01*
X333771Y543766D02*
X346979Y543766D01*
X421520Y390876D02*
X434728Y390876D01*
X434728Y416276D02*
X421520Y416276D01*
X345320Y416276D02*
X332112Y416276D01*
X332112Y390876D02*
X345320Y390876D01*
X664057Y393907D02*
X664057Y407115D01*
X638657Y407115D02*
X638657Y393907D01*
X638657Y317707D02*
X638657Y304499D01*
X664057Y304499D02*
X664057Y317707D01*
X434164Y338884D02*
X420956Y338884D01*
X420956Y364284D02*
X434164Y364284D01*
X344756Y364284D02*
X331548Y364284D01*
X331548Y338884D02*
X344756Y338884D01*
X422607Y493386D02*
X435815Y493386D01*
X435815Y518786D02*
X422607Y518786D01*
X346407Y518786D02*
X333199Y518786D01*
X333199Y493386D02*
X346407Y493386D01*
X766301Y407043D02*
X766301Y393835D01*
X740901Y393835D02*
X740901Y407043D01*
X740901Y317635D02*
X740901Y304427D01*
X766301Y304427D02*
X766301Y317635D01*
X868278Y393842D02*
X868278Y407050D01*
X842878Y407050D02*
X842878Y393842D01*
X842878Y317642D02*
X842878Y304434D01*
X868278Y304434D02*
X868278Y317642D01*
X511524Y393827D02*
X511524Y407035D01*
X486124Y407035D02*
X486124Y393827D01*
X486124Y317627D02*
X486124Y304419D01*
X511524Y304419D02*
X511524Y317627D01*
X613061Y393954D02*
X613061Y407162D01*
X587661Y407162D02*
X587661Y393954D01*
X587661Y317754D02*
X587661Y304546D01*
X613061Y304546D02*
X613061Y317754D01*
X715319Y393827D02*
X715319Y407035D01*
X689919Y407035D02*
X689919Y393827D01*
X689919Y317627D02*
X689919Y304419D01*
X715319Y304419D02*
X715319Y317627D01*
X817340Y393954D02*
X817340Y407162D01*
X791940Y407162D02*
X791940Y393954D01*
X791940Y317754D02*
X791940Y304546D01*
X817340Y304546D02*
X817340Y317754D01*
D18*
X898303Y394678D03*
X898303Y413678D03*
D19*
X511737Y284714D03*
X492737Y284714D03*
X612293Y284773D03*
X593293Y284773D03*
X714822Y285025D03*
X695822Y285025D03*
X816744Y285494D03*
X797744Y285494D03*
X517264Y429609D03*
X536264Y429609D03*
X617436Y428943D03*
X636436Y428943D03*
X719321Y428386D03*
X738321Y428386D03*
X952493Y486601D03*
X971493Y486601D03*
X562717Y284607D03*
X543717Y284607D03*
X663954Y284986D03*
X644954Y284986D03*
X766705Y285389D03*
X747705Y285389D03*
X728843Y584704D03*
X747843Y584704D03*
X311125Y442239D03*
X292125Y442239D03*
X867523Y285745D03*
X848523Y285745D03*
D18*
X797433Y557505D03*
X797433Y538505D03*
D19*
X312046Y541022D03*
X293046Y541022D03*
X704081Y561658D03*
X723081Y561658D03*
X311916Y392589D03*
X292916Y392589D03*
X679316Y538925D03*
X698316Y538925D03*
X310681Y340424D03*
X291681Y340424D03*
D18*
X774097Y556997D03*
X774097Y537997D03*
D19*
X313379Y494349D03*
X294379Y494349D03*
X569842Y428466D03*
X588842Y428466D03*
X666394Y428466D03*
X685394Y428466D03*
X772630Y435261D03*
X791630Y435261D03*
D20*
X126778Y46292D02*
X126778Y32068D01*
X152178Y32068D02*
X152178Y46292D01*
X177578Y46292D02*
X177578Y32068D01*
X202978Y32068D02*
X202978Y46292D01*
X38925Y526883D02*
X24701Y526883D01*
X24701Y501483D02*
X38925Y501483D01*
X38925Y476083D02*
X24701Y476083D01*
X24701Y450683D02*
X38925Y450683D01*
X40203Y428159D02*
X25979Y428159D01*
X25979Y402759D02*
X40203Y402759D01*
X40203Y377359D02*
X25979Y377359D01*
X25979Y351959D02*
X40203Y351959D01*
X343567Y46704D02*
X343567Y32480D01*
X368967Y32480D02*
X368967Y46704D01*
X394367Y46704D02*
X394367Y32480D01*
X419767Y32480D02*
X419767Y46704D01*
X559245Y46196D02*
X559245Y31972D01*
X584645Y31972D02*
X584645Y46196D01*
X610045Y46196D02*
X610045Y31972D01*
X635445Y31972D02*
X635445Y46196D01*
X778002Y44481D02*
X778002Y30257D01*
X803402Y30257D02*
X803402Y44481D01*
X828802Y44481D02*
X828802Y30257D01*
X854202Y30257D02*
X854202Y44481D01*
X559587Y462976D02*
X545363Y462976D01*
X545363Y488376D02*
X559587Y488376D01*
X38925Y625593D02*
X24701Y625593D01*
X24701Y600193D02*
X38925Y600193D01*
X38925Y574793D02*
X24701Y574793D01*
X24701Y549393D02*
X38925Y549393D01*
D21*
X952127Y441071D03*
D22*
X977527Y441071D03*
D21*
X905542Y43752D03*
D22*
X930942Y43752D03*
D23*
X284861Y34036D03*
D22*
X259461Y34036D03*
D23*
X502952Y36640D03*
D22*
X477552Y36640D03*
D23*
X717074Y36132D03*
D22*
X691674Y36132D03*
D21*
X178118Y325850D03*
D22*
X203518Y325850D03*
D21*
X357759Y616998D03*
D22*
X383159Y616998D03*
D24*
X959199Y252159D03*
D22*
X959199Y277559D03*
D12*
X54356Y310293D02*
X34544Y310293D01*
X34544Y260001D02*
X54356Y260001D01*
D25*
X511524Y284714D02*
X511737Y284714D01*
X511524Y284714D02*
X511524Y317627D01*
X83822Y205683D02*
X75664Y205683D01*
X511737Y283248D02*
X511737Y284714D01*
X277452Y252737D02*
X130875Y252737D01*
X83822Y205683D01*
X497157Y268669D02*
X511737Y283248D01*
X497157Y268669D02*
X293384Y268669D01*
X277452Y252737D01*
X558451Y260477D02*
X562717Y264743D01*
X562717Y284607D01*
X562717Y317691D01*
X562158Y317691D01*
X101094Y205683D02*
X101064Y205683D01*
X101094Y205683D02*
X132526Y237116D01*
X285307Y237116D02*
X301575Y253383D01*
X285307Y237116D02*
X132526Y237116D01*
X500475Y260477D02*
X558451Y260477D01*
X500475Y260477D02*
X493382Y253383D01*
X301575Y253383D01*
X151864Y205683D02*
X126464Y205683D01*
X842878Y317642D02*
X842878Y337693D01*
X791940Y337693D01*
X740901Y337693D01*
X689919Y337693D01*
X638657Y337693D01*
X587661Y337693D01*
X536758Y337693D01*
X536758Y338042D02*
X506540Y338042D01*
X486124Y317627D01*
X536758Y317691D02*
X536758Y337693D01*
X536758Y338042D01*
X587661Y337693D02*
X587661Y317754D01*
X638657Y317707D02*
X638657Y337693D01*
X689919Y337693D02*
X689919Y317627D01*
X740901Y317635D02*
X740901Y337693D01*
X791940Y337693D02*
X791940Y317754D01*
X75664Y142240D02*
X75664Y78683D01*
X75664Y142240D02*
X228064Y142240D01*
X253464Y142240D01*
X253464Y205683D01*
X228064Y142240D02*
X228064Y78683D01*
X253464Y142240D02*
X292830Y142240D01*
X445230Y142240D01*
X470630Y142240D01*
X508730Y142240D01*
X661130Y142240D01*
X686530Y142240D01*
X726660Y142240D01*
X879060Y142240D01*
X879060Y78804D01*
X470630Y142240D02*
X470630Y205804D01*
X445230Y142240D02*
X445230Y78804D01*
X292830Y78804D02*
X292830Y142240D01*
X508730Y142240D02*
X508730Y78804D01*
X661130Y78804D02*
X661130Y142240D01*
X726660Y142240D02*
X726660Y78804D01*
X686530Y142240D02*
X686530Y205804D01*
X904460Y205804D02*
X904460Y142240D01*
X879060Y142240D01*
X486124Y376174D02*
X486124Y393827D01*
X511524Y376174D02*
X536758Y376174D01*
X511524Y376174D02*
X486124Y376174D01*
X536758Y376174D02*
X587026Y376174D01*
X638397Y376174D01*
X688435Y376174D01*
X739807Y376174D01*
X791940Y376174D01*
X842878Y376174D01*
X842878Y393842D01*
X791940Y393954D02*
X791940Y376174D01*
X739807Y376174D02*
X739807Y393835D01*
X740901Y393835D01*
X688435Y393827D02*
X688435Y376174D01*
X688435Y393827D02*
X689919Y393827D01*
X638397Y393907D02*
X638397Y376174D01*
X638397Y393907D02*
X638657Y393907D01*
X587026Y393954D02*
X587026Y376174D01*
X587026Y393954D02*
X587661Y393954D01*
X536758Y393891D02*
X536758Y376174D01*
X904460Y336264D02*
X904460Y205804D01*
X904460Y336264D02*
X904460Y337693D01*
X842878Y337693D01*
X904460Y205804D02*
X965232Y205804D01*
X965232Y204089D01*
X292830Y34036D02*
X284861Y34036D01*
X292830Y34036D02*
X292830Y78804D01*
X502952Y36640D02*
X508730Y36640D01*
X508730Y78804D01*
X717074Y36132D02*
X726660Y36132D01*
X726660Y78804D01*
X672183Y517655D02*
X666335Y517655D01*
X644237Y539753D01*
X487236Y394938D02*
X486124Y393827D01*
X930210Y352340D02*
X957961Y352235D01*
X930210Y352340D02*
X920573Y352377D01*
X904460Y336264D01*
X959199Y252159D02*
X965232Y246126D01*
X965232Y205804D01*
X952127Y408344D02*
X952127Y441071D01*
X952127Y408344D02*
X929831Y386048D01*
X929831Y352720D01*
X930210Y352340D01*
X423179Y569166D02*
X403987Y569166D01*
X403543Y569166D01*
X403543Y518786D01*
X403543Y467789D01*
X403543Y416276D01*
X403543Y364284D01*
X420956Y364284D01*
X421520Y416276D02*
X403543Y416276D01*
X403543Y467789D02*
X422179Y467789D01*
X422607Y518786D02*
X403543Y518786D01*
X403543Y364284D02*
X403543Y331248D01*
X413163Y321628D01*
X456978Y321628D01*
X511524Y376174D01*
X403987Y569166D02*
X403987Y591630D01*
X383127Y591630D02*
X357759Y616998D01*
X383127Y591630D02*
X403987Y591630D01*
X368618Y569166D02*
X346979Y569166D01*
X368618Y569166D02*
X368618Y518786D01*
X368618Y467789D01*
X368618Y416814D01*
X368618Y363315D01*
X344756Y363315D01*
X344756Y364284D01*
X345320Y416276D02*
X345320Y416814D01*
X368618Y416814D01*
X368618Y467789D02*
X345979Y467789D01*
X346407Y518786D02*
X368618Y518786D01*
X368618Y363315D02*
X369189Y363315D01*
X369189Y305372D01*
X486124Y305372D01*
X486124Y317627D01*
X879060Y43752D02*
X905542Y43752D01*
X879060Y43752D02*
X879060Y78804D01*
X95527Y449112D02*
X76930Y449112D01*
X76930Y448945D01*
D26*
X76930Y448945D03*
X79978Y385223D03*
D25*
X79978Y325850D02*
X178118Y325850D01*
X79978Y325850D02*
X79978Y385223D01*
X475615Y654161D02*
X475837Y653939D01*
X475837Y644731D01*
X60008Y325850D02*
X44450Y310293D01*
X60008Y325850D02*
X79153Y325850D01*
X79978Y325850D01*
X79153Y325850D02*
X79153Y245015D01*
X54674Y220536D01*
X54674Y163230D01*
X75664Y142240D01*
X475615Y654161D02*
X475615Y676529D01*
X543433Y676529D01*
X543433Y646621D01*
X622935Y646621D01*
X622935Y670055D01*
X621383Y670055D01*
X644237Y539753D02*
X561430Y539753D01*
X487236Y465558D01*
X487236Y394938D01*
X404146Y591630D02*
X403987Y591630D01*
X404146Y591630D02*
X404146Y630555D01*
X475615Y630555D01*
X475615Y654161D01*
X357759Y616998D02*
X345107Y629650D01*
X216545Y629650D01*
X216545Y661813D01*
X343630Y205804D02*
X369030Y205804D01*
X559530Y205804D02*
X584930Y205804D01*
X777460Y205804D02*
X802860Y205804D01*
X562158Y393891D02*
X562158Y420682D01*
X569842Y428466D01*
X738321Y428386D02*
X738321Y434506D01*
X758063Y454247D01*
X862776Y454247D01*
X926183Y517655D01*
X517264Y429609D02*
X511524Y425870D01*
X511524Y393827D01*
X664057Y424467D02*
X666394Y428466D01*
X664057Y424467D02*
X664057Y393907D01*
X613061Y393954D02*
X613061Y417707D01*
X617436Y428943D01*
X766301Y428933D02*
X766301Y393835D01*
X766301Y428933D02*
X772630Y435261D01*
X719321Y428386D02*
X719321Y426815D01*
X715319Y422813D02*
X715319Y393827D01*
X715319Y422813D02*
X719321Y426815D01*
X898303Y394678D02*
X898303Y393842D01*
X868278Y393842D01*
X817340Y393954D02*
X817340Y414973D01*
X830231Y427863D01*
X882015Y427863D01*
X941610Y487458D01*
X951636Y487458D01*
X952493Y486601D01*
X663954Y284986D02*
X663954Y277730D01*
X630381Y244158D01*
X319467Y205804D02*
X318230Y205804D01*
X663954Y284986D02*
X663954Y317604D01*
X664057Y317707D01*
X339884Y227457D02*
X318230Y205804D01*
X339884Y227457D02*
X510699Y227457D01*
X527399Y244158D01*
X630381Y244158D01*
X555974Y227648D02*
X534130Y205804D01*
X555974Y227648D02*
X713223Y227648D01*
X766705Y281129D02*
X766705Y285389D01*
X766705Y281129D02*
X713223Y227648D01*
X766705Y285389D02*
X766705Y317635D01*
X766301Y317635D01*
X773587Y227330D02*
X752060Y205804D01*
X773587Y227330D02*
X837216Y227330D01*
X867523Y257637D01*
X867523Y285745D01*
X867523Y317642D01*
X868278Y317642D01*
X765586Y244729D02*
X726660Y205804D01*
X765586Y244729D02*
X803307Y244729D01*
X816744Y258166D01*
X816744Y285494D01*
X816744Y317754D01*
X817340Y317754D01*
X539147Y236220D02*
X508730Y205804D01*
X539147Y236220D02*
X674086Y236220D01*
X713498Y275631D02*
X713498Y283701D01*
X714822Y285025D01*
X713498Y275631D02*
X674086Y236220D01*
X714822Y285025D02*
X714822Y317627D01*
X715319Y317627D01*
X327819Y240792D02*
X292830Y205804D01*
X505206Y240792D02*
X516573Y252159D01*
X505206Y240792D02*
X327819Y240792D01*
X516573Y252159D02*
X584574Y252159D01*
X612366Y284700D02*
X612293Y284773D01*
X612366Y284700D02*
X612366Y279951D01*
X584574Y252159D01*
X612293Y284773D02*
X612293Y317754D01*
X613061Y317754D01*
X824738Y487045D02*
X849983Y512290D01*
X849983Y517655D01*
X824738Y487045D02*
X640816Y487045D01*
X588842Y435071D01*
X588842Y428466D01*
X804451Y497523D02*
X824583Y517655D01*
X804451Y497523D02*
X631691Y497523D01*
X582857Y448688D02*
X564644Y448688D01*
X545565Y429609D01*
X582857Y448688D02*
X631691Y497523D01*
X545565Y429609D02*
X536264Y429609D01*
X848488Y465360D02*
X900783Y517655D01*
X848488Y465360D02*
X718788Y465360D01*
X685394Y431966D01*
X685394Y428466D01*
X636436Y428943D02*
X685108Y477615D01*
X838708Y477615D01*
X875383Y514290D01*
X875383Y517655D01*
X874174Y440246D02*
X796614Y440246D01*
X791630Y435261D01*
X874174Y440246D02*
X951583Y517655D01*
X993562Y463178D02*
X993553Y463169D01*
D26*
X992824Y463171D03*
D25*
X992826Y463169D01*
D26*
X951071Y641128D03*
D25*
X951071Y669543D01*
X951583Y670055D01*
X938538Y453912D02*
X898303Y413678D01*
X938538Y453912D02*
X938538Y454660D01*
X947047Y463169D01*
X993553Y463169D01*
X986136Y495557D02*
X993679Y503099D01*
X993764Y532125D01*
X986136Y495557D02*
X980449Y495557D01*
X971493Y486601D01*
X875383Y648490D02*
X875383Y670055D01*
X875383Y648490D02*
X875602Y648272D01*
X875776Y648446D01*
D26*
X875776Y648446D03*
X964025Y561118D03*
D25*
X985391Y539753D01*
X986136Y539753D01*
X993764Y532125D01*
X308547Y662432D02*
X266837Y662432D01*
X308547Y662432D02*
X308547Y670925D01*
X266837Y662432D02*
X266837Y661813D01*
X383159Y670925D02*
X410147Y670925D01*
X383159Y656225D02*
X450215Y656225D01*
X450215Y654161D01*
X383159Y656225D02*
X383159Y616998D01*
X383159Y656225D02*
X383159Y670925D01*
X259461Y34036D02*
X253464Y34036D01*
X253464Y78683D01*
X470630Y78804D02*
X470630Y36640D01*
X477552Y36640D01*
X686530Y36132D02*
X686530Y78804D01*
X686530Y36132D02*
X691674Y36132D01*
X904460Y78804D02*
X930942Y78804D01*
X965232Y78804D02*
X965232Y153797D01*
X965232Y78804D02*
X930942Y78804D01*
X259461Y34036D02*
X258477Y34036D01*
X258477Y18098D01*
X477552Y18098D01*
X477552Y36640D01*
X477552Y18098D02*
X691674Y18098D01*
X691674Y36132D01*
X965232Y153797D02*
X991691Y180256D01*
X991691Y377920D01*
X958247Y377920D01*
X957961Y377635D01*
X977527Y397200D02*
X977527Y441071D01*
X977527Y397200D02*
X958247Y377920D01*
X258477Y18098D02*
X57722Y18098D01*
X27940Y47879D01*
X930942Y43752D02*
X930942Y78804D01*
X44450Y260001D02*
X27940Y243491D01*
X27940Y47879D01*
X930942Y43752D02*
X930942Y16541D01*
X691674Y16541D01*
X691674Y18098D01*
X101064Y78683D02*
X101064Y117793D01*
X100933Y117793D01*
D26*
X100933Y117793D03*
X317976Y117158D03*
D25*
X317976Y78804D01*
X318230Y78804D01*
D26*
X534194Y117031D03*
D25*
X534194Y78804D01*
X534130Y78804D01*
D26*
X752062Y117158D03*
D25*
X752062Y78804D01*
X752060Y78804D01*
D26*
X109188Y117793D03*
X327438Y117158D03*
X542576Y117031D03*
X760063Y117348D03*
X54450Y117920D03*
D25*
X643920Y284986D02*
X644954Y284986D01*
X643920Y284986D02*
X619220Y260287D01*
X618998Y260509D01*
D26*
X618998Y260509D03*
D25*
X593293Y284773D02*
X576675Y268155D01*
X543717Y284607D02*
X529685Y270576D01*
X529685Y270447D01*
D26*
X529685Y270447D03*
X576675Y268155D03*
D25*
X728758Y266442D02*
X747705Y285389D01*
X728758Y266442D02*
X728758Y265240D01*
D26*
X728758Y265240D03*
D25*
X797744Y274536D02*
X797744Y285494D01*
X797744Y274536D02*
X787305Y264097D01*
D26*
X787305Y264097D03*
D25*
X848523Y271657D02*
X848523Y285745D01*
X848523Y271657D02*
X841343Y264478D01*
D26*
X841343Y264478D03*
D25*
X695822Y285025D02*
X678529Y267733D01*
X678529Y267526D01*
D26*
X678529Y267526D03*
D25*
X833342Y264478D02*
X841343Y264478D01*
X833342Y264478D02*
X833025Y264160D01*
D26*
X833025Y264160D03*
D25*
X787305Y264097D02*
X779939Y264097D01*
X779558Y263716D01*
D26*
X779558Y263716D03*
D25*
X728758Y265240D02*
X721201Y265240D01*
X720757Y264795D01*
D26*
X720757Y264795D03*
D25*
X678529Y267526D02*
X670147Y267526D01*
X669957Y267716D01*
X669989Y267748D01*
D26*
X669989Y267748D03*
D25*
X618998Y260509D02*
X611696Y260509D01*
X611219Y260033D01*
D26*
X611219Y260033D03*
D25*
X576802Y268028D02*
X576675Y268155D01*
X576802Y268028D02*
X576802Y261176D01*
D26*
X576802Y261176D03*
D25*
X529685Y270447D02*
X523081Y270447D01*
X522827Y270193D01*
D26*
X522827Y270193D03*
D25*
X492737Y284714D02*
X472261Y284714D01*
X471456Y283909D01*
D26*
X471456Y283909D03*
D25*
X460280Y283909D01*
X459962Y284226D01*
D26*
X459962Y284226D03*
D25*
X951325Y326835D02*
X957961Y326835D01*
D26*
X930243Y263779D03*
X921322Y263398D03*
D25*
X929862Y263398D01*
X930243Y263779D01*
X957961Y278797D02*
X957961Y326835D01*
X957961Y278797D02*
X959199Y277559D01*
X900783Y635095D02*
X900783Y670055D01*
X900783Y635095D02*
X672116Y635095D01*
X672116Y670055D01*
X672183Y670055D01*
X672116Y635095D02*
X501015Y635095D01*
X501015Y654161D01*
X293046Y601512D02*
X293046Y541022D01*
X293046Y601512D02*
X171727Y601512D01*
X293046Y541022D02*
X294379Y541022D01*
X294379Y494349D01*
X294379Y442239D01*
X292125Y442239D01*
X292916Y442239D01*
X292916Y392589D01*
X292916Y340424D01*
X291681Y340424D01*
X291681Y283909D01*
X460280Y283909D01*
X291681Y340424D02*
X203518Y340424D01*
X203518Y325850D01*
D26*
X930688Y235839D03*
D25*
X930878Y236030D02*
X930878Y263144D01*
X930878Y236030D02*
X930688Y235839D01*
X930878Y263144D02*
X930243Y263779D01*
X947388Y265748D02*
X959199Y277559D01*
X947388Y265748D02*
X945610Y265748D01*
X943642Y263779D01*
X930243Y263779D01*
X799183Y517655D02*
X799183Y536755D01*
X797433Y538505D01*
X126778Y39180D02*
X126464Y39180D01*
X126464Y78683D01*
X152178Y78683D02*
X152178Y39180D01*
X152178Y78683D02*
X151864Y78683D01*
X177959Y39561D02*
X177578Y39180D01*
X177578Y78683D01*
X177264Y78683D01*
X202978Y78683D02*
X202978Y39180D01*
X202978Y78683D02*
X202664Y78683D01*
X343567Y78740D02*
X343630Y78804D01*
X343567Y78740D02*
X343567Y39592D01*
X368967Y78740D02*
X369030Y78804D01*
X368967Y78740D02*
X368967Y39592D01*
X394367Y78740D02*
X394430Y78804D01*
X394367Y78740D02*
X394367Y39592D01*
X419767Y78740D02*
X419830Y78804D01*
X419767Y78740D02*
X419767Y39592D01*
X777460Y37369D02*
X778002Y37369D01*
X777460Y37369D02*
X777460Y78804D01*
X802860Y37369D02*
X803402Y37369D01*
X802860Y37369D02*
X802860Y78804D01*
X828802Y78804D02*
X828802Y37369D01*
X828802Y78804D02*
X828260Y78804D01*
X854202Y78804D02*
X854202Y37369D01*
X854202Y78804D02*
X853660Y78804D01*
X559530Y78804D02*
X559245Y78518D01*
X559245Y39084D01*
X584645Y78518D02*
X584930Y78804D01*
X584645Y78518D02*
X584645Y39084D01*
X610045Y78518D02*
X610330Y78804D01*
X610045Y78518D02*
X610045Y39084D01*
X635445Y78518D02*
X635730Y78804D01*
X635445Y78518D02*
X635445Y39084D01*
X551145Y584704D02*
X728843Y584704D01*
X551145Y584704D02*
X451405Y484965D01*
X439064Y442389D02*
X422179Y442389D01*
X451405Y478486D02*
X451405Y484965D01*
X451453Y478534D02*
X451405Y478486D01*
X451453Y478534D02*
X451453Y454778D01*
X439064Y442389D01*
X771271Y614902D02*
X799402Y586772D01*
X799402Y559474D01*
X797433Y557505D01*
X771271Y614902D02*
X508539Y614902D01*
X437403Y543766D01*
X423179Y543766D01*
X421520Y390876D02*
X430465Y390876D01*
X431133Y390208D01*
X688277Y561658D02*
X704081Y561658D01*
X688277Y561658D02*
X684117Y565817D01*
X553386Y565817D01*
X463487Y475917D01*
X437549Y390876D02*
X421520Y390876D01*
X437549Y390876D02*
X463487Y416814D01*
X463487Y475917D01*
X344756Y338884D02*
X310681Y338884D01*
X310681Y340424D01*
X309467Y340424D01*
X309467Y362490D01*
D26*
X309467Y362490D03*
X191294Y473424D03*
D25*
X171727Y473424D01*
X171727Y474512D01*
X64493Y476083D02*
X31813Y476083D01*
X64493Y476083D02*
X78772Y461804D01*
X160107Y461804D01*
X171727Y473424D01*
X420956Y338884D02*
X440579Y338884D01*
X665696Y552545D02*
X679316Y538925D01*
X473297Y371602D02*
X440579Y338884D01*
X557953Y552545D02*
X665696Y552545D01*
X557953Y552545D02*
X473297Y467889D01*
X473297Y371602D01*
X774097Y556997D02*
X774097Y590106D01*
X762476Y601726D01*
X545171Y601726D01*
X436831Y493386D01*
X422607Y493386D01*
X338011Y442239D02*
X311125Y442239D01*
X338011Y442239D02*
X338011Y441039D01*
X95527Y550712D02*
X71445Y574793D01*
X31813Y574793D01*
X95527Y550712D02*
X153988Y550712D01*
X153988Y512217D01*
X184032Y512217D02*
X184032Y511874D01*
X267843Y511874D01*
X184032Y512217D02*
X153988Y512217D01*
X267843Y511874D02*
X267843Y469519D01*
X266510Y469519D01*
D26*
X266510Y469519D03*
X310198Y468186D03*
D25*
X310198Y442239D01*
X311125Y442239D01*
X311916Y390876D02*
X345320Y390876D01*
X311916Y390876D02*
X311916Y392589D01*
X68556Y526883D02*
X31813Y526883D01*
X68556Y526883D02*
X95527Y499912D01*
X95527Y498634D01*
X134366Y498634D01*
X134366Y487204D01*
X190278Y487204D01*
X190278Y487966D01*
D26*
X190278Y487966D03*
X311690Y414401D03*
D25*
X311690Y392589D01*
X311916Y392589D01*
X150463Y601512D02*
X95527Y601512D01*
X150463Y601512D02*
X150463Y588740D01*
X259398Y588740D01*
X259398Y544608D01*
D26*
X259398Y544608D03*
X311785Y517906D03*
D25*
X311785Y491236D01*
X309023Y491236D01*
X95527Y601512D02*
X71445Y625593D01*
X31813Y625593D01*
X313379Y494349D02*
X346407Y494349D01*
X346407Y493386D01*
X552475Y488376D02*
X560378Y480473D01*
X595348Y517020D02*
X595983Y517655D01*
X595348Y517020D02*
X595348Y511168D01*
X564652Y480473D02*
X560378Y480473D01*
X564652Y480473D02*
X595348Y511168D01*
X621383Y516203D02*
X621383Y517655D01*
X553491Y463992D02*
X552475Y462976D01*
X569171Y463992D02*
X621383Y516203D01*
X569171Y463992D02*
X553491Y463992D01*
X697583Y517655D02*
X697583Y538191D01*
X698316Y538925D01*
X722983Y517655D02*
X722983Y561559D01*
X723081Y561658D01*
X748383Y584164D02*
X748383Y517655D01*
X748383Y584164D02*
X747843Y584704D01*
X773783Y537683D02*
X773783Y517655D01*
X773783Y537683D02*
X774097Y537997D01*
X95527Y576112D02*
X71445Y600193D01*
X31813Y600193D01*
X71445Y549393D02*
X95527Y525312D01*
X71445Y549393D02*
X31813Y549393D01*
X31813Y501483D02*
X68556Y501483D01*
X95527Y474512D01*
X33106Y449390D02*
X31813Y450683D01*
X33106Y449390D02*
X59912Y449390D01*
X77851Y431451D01*
X154066Y431451D01*
X171727Y449112D01*
X171727Y525312D02*
X171727Y528034D01*
X212979Y528034D01*
X212979Y548735D01*
X212058Y548735D01*
D26*
X212058Y548735D03*
X312230Y585946D03*
D25*
X312230Y541022D01*
X312046Y541022D01*
X346979Y541022D01*
X346979Y543766D01*
X33091Y428159D02*
X33091Y402759D01*
X33091Y377359D01*
X33091Y351959D01*
X33091Y402759D02*
X165428Y402759D01*
X208375Y445707D01*
X208375Y489395D01*
X197803Y499967D01*
X171783Y499967D01*
X171727Y499912D01*
M02*
