M48
;GenerationSoftware,Autodesk,EAGLE,9.7.0*%
;CreationDate,2022-05-20T20:47:06Z*%
FMAT,2
ICI,OFF
METRIC,TZ,000.000
T10C0.350
T9C0.743
T8C0.800
T7C0.813
T6C0.914
T5C1.016
T4C1.118
T3C1.321
T2C1.778
%
G90
M71
T2
X97698Y67005
X97698Y51765
X57058Y51765
X57058Y67005
T3
X4445Y31029
X4445Y26000
X21655Y66181
X96523Y15380
X96523Y20409
X26684Y66181
T4
X30855Y67093
X41015Y67093
T5
X55953Y20580
X58493Y20580
X61033Y20580
X63573Y20580
X66113Y20580
X68653Y20580
X47063Y7880
X45021Y65416
X47561Y65416
X50101Y65416
X25346Y20568
X22806Y20568
X20266Y20568
X17726Y20568
X15186Y20568
X12646Y20568
X10106Y20568
X7566Y20568
X7566Y7868
X10106Y7868
X12646Y7868
X44523Y7880
X15186Y7868
X17726Y7868
X20266Y7868
X22806Y7868
X25346Y7868
X47063Y20580
X44523Y20580
X41983Y20580
X39443Y20580
X36903Y20580
X95796Y37763
X95796Y35223
X95796Y32683
X61033Y7880
X34363Y20580
X31823Y20580
X29283Y20580
X29283Y7880
X31823Y7880
X34363Y7880
X36903Y7880
X39443Y7880
X41983Y7880
X58493Y7880
X55953Y7880
X90446Y7880
X87906Y7880
X53413Y7880
X82826Y7880
X80286Y7880
X77746Y7880
X75206Y7880
X72666Y7880
X72666Y20580
X75206Y20580
X77746Y20580
X80286Y20580
X85366Y7880
X85366Y20580
X87906Y20580
X90446Y20580
X68653Y7880
X66113Y7880
X63573Y7880
X50873Y7880
X50873Y20580
X53413Y20580
X82826Y20580
T6
X3181Y45068
X3309Y42816
X3309Y40276
X3309Y37736
X3309Y35196
X34357Y3959
X36897Y3959
X41977Y3959
X55924Y3908
X58464Y3908
X61004Y3908
X63544Y3908
X77800Y3737
X80340Y3737
X82880Y3737
X85420Y3737
X55248Y46298
X55248Y48838
X3181Y62559
X3181Y60019
X3181Y57479
X3181Y54939
X39437Y3959
X12678Y3918
X15218Y3918
X17758Y3918
X20298Y3918
X3181Y52688
X3181Y50148
X3181Y47608
T7
X42318Y54377
X20352Y32585
X17812Y32585
X69167Y3613
X71707Y3613
X47755Y3664
X50295Y3664
X25946Y3404
X28486Y3404
X93094Y4375
X90554Y4375
X97753Y44107
X95213Y44107
X84288Y39384
X81734Y31775
X79194Y31775
X79194Y39395
X81734Y39395
X71532Y31763
X34476Y36428
X68992Y31763
X68992Y39383
X71532Y39383
X61306Y31775
X58766Y31775
X58766Y39395
X61306Y39395
X51152Y31763
X48612Y31763
X48612Y39383
X51152Y39383
X86828Y31764
X84288Y31764
X86828Y39384
X76630Y31764
X74090Y31764
X74090Y39384
X76630Y39384
X34641Y49339
X34641Y51879
X42261Y51879
X42261Y49339
X34476Y33888
X42318Y56917
X34698Y56917
X34698Y54377
X42152Y39088
X42152Y41628
X34532Y41628
X34532Y39088
X66406Y39391
X63866Y39391
X63866Y31771
X66406Y31771
X42096Y33888
X42096Y36428
X56216Y39389
X53676Y39389
X53676Y31769
X56216Y31769
X42218Y44239
X42218Y46779
X34598Y46779
X34598Y44239
X35776Y61700
X38316Y61700
X95920Y25216
X95920Y27756
T8
X87538Y67005
X84998Y67005
X82458Y67005
X79918Y67005
X77378Y67005
X74838Y67005
X59598Y67005
X62138Y67005
X64678Y67005
X67218Y67005
X62138Y51765
X69758Y67005
X95158Y51765
X92618Y51765
X90078Y51765
X87538Y51765
X84998Y51765
X82458Y51765
X79918Y51765
X77378Y51765
X74838Y51765
X72298Y51765
X69758Y51765
X64678Y51765
X59598Y51765
X67218Y51765
X95158Y67005
X92618Y67005
X90078Y67005
X72298Y67005
T9
X17173Y49991
X17173Y52531
X9553Y57611
X17173Y47451
X17173Y44911
X9553Y44911
X9553Y47451
X9553Y60151
X9553Y52531
X9553Y55071
X17173Y60151
X17173Y57611
X17173Y55071
X9553Y49991
T10
X83302Y26416
X67853Y26753
X84134Y26448
X72876Y26524
X57668Y26815
X72076Y26479
X61900Y26051
X5445Y11792
X52969Y27045
X76006Y11735
X7693Y44894
X21206Y54874
X31178Y51791
X25940Y54461
X31169Y41440
X19028Y48797
X31020Y46819
X26651Y46952
X19129Y47342
X30947Y36249
X31223Y58595
X92132Y26340
X93069Y23584
X93024Y26378
X78730Y26410
X45996Y28423
X54258Y11703
X32744Y11716
X10919Y11779
X77956Y26372
X53419Y11703
X31798Y11716
X10093Y11779
X96403Y56112
X87578Y64845
X95107Y64113
X75206Y11716
X7998Y38522
X47146Y28391
X52283Y27019
X57680Y26118
X61122Y26003
X66999Y26775
X99282Y46317
M30